<svg width="1024" height="1024" viewBox="0 0 1024 1024" fill="none" xmlns="http://www.w3.org/2000/svg">
<rect width="1024" height="1024" fill="white"/>
<path d="M268 243H293C386.308 243 432.962 243 462.153 271.736C462.526 272.103 462.897 272.474 463.264 272.847C492 302.038 492 348.692 492 442H467C373.692 442 327.038 442 297.847 413.264C297.474 412.897 297.103 412.526 296.736 412.153C268 382.962 268 336.308 268 243Z" fill="#77B900"/>
<path d="M508 442C508 348.692 508 302.038 536.736 272.847C537.103 272.474 537.474 272.103 537.847 271.736C567.038 243 613.692 243 707 243H756C756 336.308 756 382.962 727.264 412.153C726.897 412.526 726.526 412.897 726.153 413.264C696.962 442 650.308 442 557 442H508Z" fill="#77B900"/>
<path d="M268 658C268 563.719 268 516.579 297.289 487.289C326.579 458 373.719 458 468 458H492V582C492 676.281 492 723.421 462.711 752.711C433.421 782 386.281 782 292 782H268V658Z" fill="#77B900"/>
<path d="M508 458H559C650.365 458 696.048 458 725.025 485.643C726.162 486.727 727.273 487.838 728.357 488.975C756 517.952 756 563.635 756 655H705C613.635 655 567.952 655 538.975 627.357C537.838 626.273 536.727 625.162 535.643 624.025C508 595.048 508 549.365 508 458Z" fill="#77B900"/>
</svg>
